<mxfile host="app.diagrams.net" modified="2024-04-03T02:19:56.241Z" agent="Mozilla/5.0 (Windows NT 10.0; Win64; x64) AppleWebKit/537.36 (KHTML, like Gecko) Chrome/123.0.0.0 Safari/537.36 Edg/123.0.0.0" etag="o-alHExviKo1j3KH-eWP" version="24.2.1" type="github">
  <diagram id="C5RBs43oDa-KdzZeNtuy" name="Page-1">
    <mxGraphModel dx="1386" dy="785" grid="1" gridSize="10" guides="1" tooltips="1" connect="1" arrows="1" fold="1" page="1" pageScale="1" pageWidth="827" pageHeight="1169" math="0" shadow="0">
      <root>
        <mxCell id="WIyWlLk6GJQsqaUBKTNV-0" />
        <mxCell id="WIyWlLk6GJQsqaUBKTNV-1" parent="WIyWlLk6GJQsqaUBKTNV-0" />
        <mxCell id="wz0nyAujkwzO3MRst4Ln-67" style="edgeStyle=orthogonalEdgeStyle;rounded=0;orthogonalLoop=1;jettySize=auto;html=1;entryX=0.5;entryY=0;entryDx=0;entryDy=0;" edge="1" parent="WIyWlLk6GJQsqaUBKTNV-1" source="WIyWlLk6GJQsqaUBKTNV-3" target="wz0nyAujkwzO3MRst4Ln-0">
          <mxGeometry relative="1" as="geometry" />
        </mxCell>
        <mxCell id="WIyWlLk6GJQsqaUBKTNV-3" value="Print Logo" style="rounded=1;whiteSpace=wrap;html=1;fontSize=12;glass=0;strokeWidth=1;shadow=0;" parent="WIyWlLk6GJQsqaUBKTNV-1" vertex="1">
          <mxGeometry x="280" y="150" width="120" height="40" as="geometry" />
        </mxCell>
        <mxCell id="WIyWlLk6GJQsqaUBKTNV-5" value="No" style="edgeStyle=orthogonalEdgeStyle;rounded=0;html=1;jettySize=auto;orthogonalLoop=1;fontSize=11;endArrow=block;endFill=0;endSize=8;strokeWidth=1;shadow=0;labelBackgroundColor=none;" parent="WIyWlLk6GJQsqaUBKTNV-1" source="WIyWlLk6GJQsqaUBKTNV-6" target="WIyWlLk6GJQsqaUBKTNV-7" edge="1">
          <mxGeometry y="10" relative="1" as="geometry">
            <mxPoint as="offset" />
          </mxGeometry>
        </mxCell>
        <mxCell id="wz0nyAujkwzO3MRst4Ln-66" style="edgeStyle=orthogonalEdgeStyle;rounded=0;orthogonalLoop=1;jettySize=auto;html=1;entryX=0.5;entryY=0;entryDx=0;entryDy=0;" edge="1" parent="WIyWlLk6GJQsqaUBKTNV-1" source="WIyWlLk6GJQsqaUBKTNV-6" target="WIyWlLk6GJQsqaUBKTNV-3">
          <mxGeometry relative="1" as="geometry" />
        </mxCell>
        <mxCell id="WIyWlLk6GJQsqaUBKTNV-6" value="Do you want to play BlackJack" style="rhombus;whiteSpace=wrap;html=1;shadow=0;fontFamily=Helvetica;fontSize=12;align=center;strokeWidth=1;spacing=6;spacingTop=-4;" parent="WIyWlLk6GJQsqaUBKTNV-1" vertex="1">
          <mxGeometry x="255" y="30" width="170" height="90" as="geometry" />
        </mxCell>
        <mxCell id="WIyWlLk6GJQsqaUBKTNV-7" value="Exit Program" style="rounded=1;whiteSpace=wrap;html=1;fontSize=12;glass=0;strokeWidth=1;shadow=0;" parent="WIyWlLk6GJQsqaUBKTNV-1" vertex="1">
          <mxGeometry x="500" y="55" width="120" height="40" as="geometry" />
        </mxCell>
        <mxCell id="WIyWlLk6GJQsqaUBKTNV-8" value="No" style="rounded=0;html=1;jettySize=auto;orthogonalLoop=1;fontSize=11;endArrow=block;endFill=0;endSize=8;strokeWidth=1;shadow=0;labelBackgroundColor=none;edgeStyle=orthogonalEdgeStyle;entryX=0.5;entryY=0;entryDx=0;entryDy=0;" parent="WIyWlLk6GJQsqaUBKTNV-1" source="WIyWlLk6GJQsqaUBKTNV-10" target="wz0nyAujkwzO3MRst4Ln-8" edge="1">
          <mxGeometry x="-0.1111" y="14" relative="1" as="geometry">
            <mxPoint x="10" y="-4" as="offset" />
          </mxGeometry>
        </mxCell>
        <mxCell id="WIyWlLk6GJQsqaUBKTNV-9" value="Yes" style="edgeStyle=orthogonalEdgeStyle;rounded=0;html=1;jettySize=auto;orthogonalLoop=1;fontSize=11;endArrow=block;endFill=0;endSize=8;strokeWidth=1;shadow=0;labelBackgroundColor=none;" parent="WIyWlLk6GJQsqaUBKTNV-1" source="WIyWlLk6GJQsqaUBKTNV-10" target="WIyWlLk6GJQsqaUBKTNV-12" edge="1">
          <mxGeometry y="-10" relative="1" as="geometry">
            <mxPoint as="offset" />
          </mxGeometry>
        </mxCell>
        <mxCell id="WIyWlLk6GJQsqaUBKTNV-10" value="Its a user BlackJack?&lt;div&gt;(11 + 10)&lt;/div&gt;" style="rhombus;whiteSpace=wrap;html=1;shadow=0;fontFamily=Helvetica;fontSize=12;align=center;strokeWidth=1;spacing=6;spacingTop=-4;" parent="WIyWlLk6GJQsqaUBKTNV-1" vertex="1">
          <mxGeometry x="247.5" y="450" width="185" height="80" as="geometry" />
        </mxCell>
        <mxCell id="wz0nyAujkwzO3MRst4Ln-6" style="edgeStyle=orthogonalEdgeStyle;rounded=0;orthogonalLoop=1;jettySize=auto;html=1;entryX=0;entryY=0.5;entryDx=0;entryDy=0;exitX=0.5;exitY=0;exitDx=0;exitDy=0;" edge="1" parent="WIyWlLk6GJQsqaUBKTNV-1" source="WIyWlLk6GJQsqaUBKTNV-12" target="WIyWlLk6GJQsqaUBKTNV-6">
          <mxGeometry relative="1" as="geometry">
            <Array as="points">
              <mxPoint x="100" y="75" />
            </Array>
          </mxGeometry>
        </mxCell>
        <mxCell id="WIyWlLk6GJQsqaUBKTNV-12" value="Print You win - Game Over" style="rounded=1;whiteSpace=wrap;html=1;fontSize=12;glass=0;strokeWidth=1;shadow=0;" parent="WIyWlLk6GJQsqaUBKTNV-1" vertex="1">
          <mxGeometry x="50" y="470" width="120" height="40" as="geometry" />
        </mxCell>
        <mxCell id="wz0nyAujkwzO3MRst4Ln-68" style="edgeStyle=orthogonalEdgeStyle;rounded=0;orthogonalLoop=1;jettySize=auto;html=1;entryX=0.5;entryY=0;entryDx=0;entryDy=0;" edge="1" parent="WIyWlLk6GJQsqaUBKTNV-1" source="wz0nyAujkwzO3MRst4Ln-0" target="wz0nyAujkwzO3MRst4Ln-1">
          <mxGeometry relative="1" as="geometry" />
        </mxCell>
        <mxCell id="wz0nyAujkwzO3MRst4Ln-0" value="Select 2 random item from card list (num) - User&lt;div&gt;Save items in a empty list - User game&lt;br&gt;&lt;/div&gt;" style="rounded=1;whiteSpace=wrap;html=1;fontSize=12;glass=0;strokeWidth=1;shadow=0;" vertex="1" parent="WIyWlLk6GJQsqaUBKTNV-1">
          <mxGeometry x="195" y="220" width="290" height="40" as="geometry" />
        </mxCell>
        <mxCell id="wz0nyAujkwzO3MRst4Ln-69" style="edgeStyle=orthogonalEdgeStyle;rounded=0;orthogonalLoop=1;jettySize=auto;html=1;" edge="1" parent="WIyWlLk6GJQsqaUBKTNV-1" source="wz0nyAujkwzO3MRst4Ln-1" target="wz0nyAujkwzO3MRst4Ln-4">
          <mxGeometry relative="1" as="geometry" />
        </mxCell>
        <mxCell id="wz0nyAujkwzO3MRst4Ln-1" value="Select 2 random item from card list (num) - Dealer PC&lt;div&gt;Save items in a empty list - PC game&lt;br&gt;&lt;/div&gt;" style="rounded=1;whiteSpace=wrap;html=1;fontSize=12;glass=0;strokeWidth=1;shadow=0;" vertex="1" parent="WIyWlLk6GJQsqaUBKTNV-1">
          <mxGeometry x="182.5" y="290" width="315" height="40" as="geometry" />
        </mxCell>
        <mxCell id="wz0nyAujkwzO3MRst4Ln-71" style="edgeStyle=orthogonalEdgeStyle;rounded=0;orthogonalLoop=1;jettySize=auto;html=1;entryX=0.5;entryY=0;entryDx=0;entryDy=0;" edge="1" parent="WIyWlLk6GJQsqaUBKTNV-1" source="wz0nyAujkwzO3MRst4Ln-4" target="WIyWlLk6GJQsqaUBKTNV-10">
          <mxGeometry relative="1" as="geometry" />
        </mxCell>
        <mxCell id="wz0nyAujkwzO3MRst4Ln-4" value="Print user Game and curret sum and PC Game only first card" style="rounded=1;whiteSpace=wrap;html=1;fontSize=12;glass=0;strokeWidth=1;shadow=0;" vertex="1" parent="WIyWlLk6GJQsqaUBKTNV-1">
          <mxGeometry x="250" y="370" width="180" height="40" as="geometry" />
        </mxCell>
        <mxCell id="wz0nyAujkwzO3MRst4Ln-8" value="Ask User if he want to get another card?" style="rhombus;whiteSpace=wrap;html=1;" vertex="1" parent="WIyWlLk6GJQsqaUBKTNV-1">
          <mxGeometry x="250" y="570" width="170" height="70" as="geometry" />
        </mxCell>
        <mxCell id="wz0nyAujkwzO3MRst4Ln-53" style="edgeStyle=orthogonalEdgeStyle;rounded=0;orthogonalLoop=1;jettySize=auto;html=1;entryX=0.5;entryY=0;entryDx=0;entryDy=0;" edge="1" parent="WIyWlLk6GJQsqaUBKTNV-1" source="wz0nyAujkwzO3MRst4Ln-9" target="wz0nyAujkwzO3MRst4Ln-34">
          <mxGeometry relative="1" as="geometry" />
        </mxCell>
        <mxCell id="wz0nyAujkwzO3MRst4Ln-9" value="Reveal Game" style="rounded=1;whiteSpace=wrap;html=1;fontSize=12;glass=0;strokeWidth=1;shadow=0;" vertex="1" parent="WIyWlLk6GJQsqaUBKTNV-1">
          <mxGeometry x="540" y="585" width="180" height="40" as="geometry" />
        </mxCell>
        <mxCell id="wz0nyAujkwzO3MRst4Ln-18" style="edgeStyle=orthogonalEdgeStyle;rounded=0;orthogonalLoop=1;jettySize=auto;html=1;exitX=0.5;exitY=1;exitDx=0;exitDy=0;entryX=0.5;entryY=0;entryDx=0;entryDy=0;" edge="1" parent="WIyWlLk6GJQsqaUBKTNV-1" source="wz0nyAujkwzO3MRst4Ln-12" target="wz0nyAujkwzO3MRst4Ln-15">
          <mxGeometry relative="1" as="geometry" />
        </mxCell>
        <mxCell id="wz0nyAujkwzO3MRst4Ln-12" value="Select 1 random item from card list (num) - User&lt;div&gt;Save items in a empty list - User game&lt;br&gt;&lt;/div&gt;" style="rounded=1;whiteSpace=wrap;html=1;fontSize=12;glass=0;strokeWidth=1;shadow=0;" vertex="1" parent="WIyWlLk6GJQsqaUBKTNV-1">
          <mxGeometry x="185" y="690" width="290" height="40" as="geometry" />
        </mxCell>
        <mxCell id="wz0nyAujkwzO3MRst4Ln-49" style="edgeStyle=orthogonalEdgeStyle;rounded=0;orthogonalLoop=1;jettySize=auto;html=1;entryX=0.5;entryY=0;entryDx=0;entryDy=0;" edge="1" parent="WIyWlLk6GJQsqaUBKTNV-1" source="wz0nyAujkwzO3MRst4Ln-15" target="wz0nyAujkwzO3MRst4Ln-23">
          <mxGeometry relative="1" as="geometry" />
        </mxCell>
        <mxCell id="wz0nyAujkwzO3MRst4Ln-15" value="The user score is equal or lower than 21?" style="rhombus;whiteSpace=wrap;html=1;" vertex="1" parent="WIyWlLk6GJQsqaUBKTNV-1">
          <mxGeometry x="188.75" y="760" width="282.5" height="70" as="geometry" />
        </mxCell>
        <mxCell id="wz0nyAujkwzO3MRst4Ln-16" value="Yes" style="edgeStyle=orthogonalEdgeStyle;rounded=0;html=1;jettySize=auto;orthogonalLoop=1;fontSize=11;endArrow=block;endFill=0;endSize=8;strokeWidth=1;shadow=0;labelBackgroundColor=none;exitX=1;exitY=0.5;exitDx=0;exitDy=0;entryX=0.5;entryY=1;entryDx=0;entryDy=0;" edge="1" parent="WIyWlLk6GJQsqaUBKTNV-1" source="wz0nyAujkwzO3MRst4Ln-15" target="wz0nyAujkwzO3MRst4Ln-51">
          <mxGeometry x="-0.9427" y="15" relative="1" as="geometry">
            <mxPoint as="offset" />
            <mxPoint x="580" y="750" as="sourcePoint" />
            <mxPoint x="460" y="750" as="targetPoint" />
            <Array as="points">
              <mxPoint x="1200" y="795" />
              <mxPoint x="1200" y="550" />
            </Array>
          </mxGeometry>
        </mxCell>
        <mxCell id="wz0nyAujkwzO3MRst4Ln-20" value="Yes" style="edgeStyle=orthogonalEdgeStyle;rounded=0;html=1;jettySize=auto;orthogonalLoop=1;fontSize=11;endArrow=block;endFill=0;endSize=8;strokeWidth=1;shadow=0;labelBackgroundColor=none;entryX=0.5;entryY=0;entryDx=0;entryDy=0;" edge="1" parent="WIyWlLk6GJQsqaUBKTNV-1" target="wz0nyAujkwzO3MRst4Ln-12">
          <mxGeometry y="-10" relative="1" as="geometry">
            <mxPoint as="offset" />
            <mxPoint x="330" y="640" as="sourcePoint" />
            <mxPoint x="210" y="640" as="targetPoint" />
          </mxGeometry>
        </mxCell>
        <mxCell id="wz0nyAujkwzO3MRst4Ln-21" value="No" style="rounded=0;html=1;jettySize=auto;orthogonalLoop=1;fontSize=11;endArrow=block;endFill=0;endSize=8;strokeWidth=1;shadow=0;labelBackgroundColor=none;edgeStyle=orthogonalEdgeStyle;entryX=0;entryY=0.5;entryDx=0;entryDy=0;exitX=1;exitY=0.5;exitDx=0;exitDy=0;" edge="1" parent="WIyWlLk6GJQsqaUBKTNV-1" source="wz0nyAujkwzO3MRst4Ln-8" target="wz0nyAujkwzO3MRst4Ln-9">
          <mxGeometry x="0.2308" y="5" relative="1" as="geometry">
            <mxPoint as="offset" />
            <mxPoint x="420" y="595" as="sourcePoint" />
            <mxPoint x="420" y="625" as="targetPoint" />
          </mxGeometry>
        </mxCell>
        <mxCell id="wz0nyAujkwzO3MRst4Ln-55" style="edgeStyle=orthogonalEdgeStyle;rounded=0;orthogonalLoop=1;jettySize=auto;html=1;entryX=0.5;entryY=0;entryDx=0;entryDy=0;" edge="1" parent="WIyWlLk6GJQsqaUBKTNV-1" source="wz0nyAujkwzO3MRst4Ln-22" target="wz0nyAujkwzO3MRst4Ln-26">
          <mxGeometry relative="1" as="geometry" />
        </mxCell>
        <mxCell id="wz0nyAujkwzO3MRst4Ln-22" value="Print&amp;nbsp; entire user Game and show PC Game" style="rounded=1;whiteSpace=wrap;html=1;fontSize=12;glass=0;strokeWidth=1;shadow=0;" vertex="1" parent="WIyWlLk6GJQsqaUBKTNV-1">
          <mxGeometry x="520" y="740" width="220" height="40" as="geometry" />
        </mxCell>
        <mxCell id="wz0nyAujkwzO3MRst4Ln-25" style="edgeStyle=orthogonalEdgeStyle;rounded=0;orthogonalLoop=1;jettySize=auto;html=1;entryX=0;entryY=0.5;entryDx=0;entryDy=0;exitX=0;exitY=0.5;exitDx=0;exitDy=0;" edge="1" parent="WIyWlLk6GJQsqaUBKTNV-1" source="wz0nyAujkwzO3MRst4Ln-23" target="WIyWlLk6GJQsqaUBKTNV-6">
          <mxGeometry relative="1" as="geometry">
            <mxPoint x="145" y="60" as="targetPoint" />
            <mxPoint x="135" y="900" as="sourcePoint" />
            <Array as="points">
              <mxPoint x="20" y="890" />
              <mxPoint x="20" y="75" />
            </Array>
          </mxGeometry>
        </mxCell>
        <mxCell id="wz0nyAujkwzO3MRst4Ln-23" value="Print You Lose PC Win" style="rounded=1;whiteSpace=wrap;html=1;fontSize=12;glass=0;strokeWidth=1;shadow=0;" vertex="1" parent="WIyWlLk6GJQsqaUBKTNV-1">
          <mxGeometry x="270" y="870" width="120" height="40" as="geometry" />
        </mxCell>
        <mxCell id="wz0nyAujkwzO3MRst4Ln-56" style="edgeStyle=orthogonalEdgeStyle;rounded=0;orthogonalLoop=1;jettySize=auto;html=1;entryX=0.5;entryY=0;entryDx=0;entryDy=0;" edge="1" parent="WIyWlLk6GJQsqaUBKTNV-1" source="wz0nyAujkwzO3MRst4Ln-26" target="wz0nyAujkwzO3MRst4Ln-30">
          <mxGeometry relative="1" as="geometry" />
        </mxCell>
        <mxCell id="wz0nyAujkwzO3MRst4Ln-26" value="The PC Score is equal to 21?" style="rhombus;whiteSpace=wrap;html=1;" vertex="1" parent="WIyWlLk6GJQsqaUBKTNV-1">
          <mxGeometry x="488.75" y="855" width="282.5" height="70" as="geometry" />
        </mxCell>
        <mxCell id="wz0nyAujkwzO3MRst4Ln-29" value="Yes" style="edgeStyle=orthogonalEdgeStyle;rounded=0;html=1;jettySize=auto;orthogonalLoop=1;fontSize=11;endArrow=block;endFill=0;endSize=8;strokeWidth=1;shadow=0;labelBackgroundColor=none;entryX=1;entryY=0.5;entryDx=0;entryDy=0;exitX=0;exitY=0.5;exitDx=0;exitDy=0;" edge="1" parent="WIyWlLk6GJQsqaUBKTNV-1" source="wz0nyAujkwzO3MRst4Ln-26" target="wz0nyAujkwzO3MRst4Ln-23">
          <mxGeometry y="-10" relative="1" as="geometry">
            <mxPoint as="offset" />
            <mxPoint x="497.5" y="854.5" as="sourcePoint" />
            <mxPoint x="377.5" y="854.5" as="targetPoint" />
            <Array as="points">
              <mxPoint x="510" y="890" />
              <mxPoint x="510" y="890" />
            </Array>
          </mxGeometry>
        </mxCell>
        <mxCell id="wz0nyAujkwzO3MRst4Ln-58" style="edgeStyle=orthogonalEdgeStyle;rounded=0;orthogonalLoop=1;jettySize=auto;html=1;entryX=0.5;entryY=0;entryDx=0;entryDy=0;" edge="1" parent="WIyWlLk6GJQsqaUBKTNV-1" source="wz0nyAujkwzO3MRst4Ln-30" target="wz0nyAujkwzO3MRst4Ln-40">
          <mxGeometry relative="1" as="geometry" />
        </mxCell>
        <mxCell id="wz0nyAujkwzO3MRst4Ln-30" value="The PC Score is lower than 21?" style="rhombus;whiteSpace=wrap;html=1;" vertex="1" parent="WIyWlLk6GJQsqaUBKTNV-1">
          <mxGeometry x="488.75" y="960" width="282.5" height="70" as="geometry" />
        </mxCell>
        <mxCell id="wz0nyAujkwzO3MRst4Ln-31" value="No" style="rounded=0;html=1;jettySize=auto;orthogonalLoop=1;fontSize=11;endArrow=block;endFill=0;endSize=8;strokeWidth=1;shadow=0;labelBackgroundColor=none;edgeStyle=orthogonalEdgeStyle;entryX=0.5;entryY=1;entryDx=0;entryDy=0;exitX=0;exitY=0.5;exitDx=0;exitDy=0;" edge="1" parent="WIyWlLk6GJQsqaUBKTNV-1" source="wz0nyAujkwzO3MRst4Ln-30" target="WIyWlLk6GJQsqaUBKTNV-12">
          <mxGeometry x="-0.9543" y="-5" relative="1" as="geometry">
            <mxPoint as="offset" />
            <mxPoint x="365" y="1010" as="sourcePoint" />
            <mxPoint x="485" y="1010" as="targetPoint" />
          </mxGeometry>
        </mxCell>
        <mxCell id="wz0nyAujkwzO3MRst4Ln-33" value="The PC Score is lower than user score?" style="rhombus;whiteSpace=wrap;html=1;" vertex="1" parent="WIyWlLk6GJQsqaUBKTNV-1">
          <mxGeometry x="488.75" y="1160" width="281.25" height="70" as="geometry" />
        </mxCell>
        <mxCell id="wz0nyAujkwzO3MRst4Ln-54" style="edgeStyle=orthogonalEdgeStyle;rounded=0;orthogonalLoop=1;jettySize=auto;html=1;entryX=0.5;entryY=0;entryDx=0;entryDy=0;" edge="1" parent="WIyWlLk6GJQsqaUBKTNV-1" source="wz0nyAujkwzO3MRst4Ln-34" target="wz0nyAujkwzO3MRst4Ln-22">
          <mxGeometry relative="1" as="geometry" />
        </mxCell>
        <mxCell id="wz0nyAujkwzO3MRst4Ln-34" value="The PC Score is lower than 17?" style="rhombus;whiteSpace=wrap;html=1;" vertex="1" parent="WIyWlLk6GJQsqaUBKTNV-1">
          <mxGeometry x="488.75" y="650" width="282.5" height="70" as="geometry" />
        </mxCell>
        <mxCell id="wz0nyAujkwzO3MRst4Ln-37" style="edgeStyle=orthogonalEdgeStyle;rounded=0;orthogonalLoop=1;jettySize=auto;html=1;entryX=1;entryY=0.5;entryDx=0;entryDy=0;" edge="1" parent="WIyWlLk6GJQsqaUBKTNV-1" target="wz0nyAujkwzO3MRst4Ln-22">
          <mxGeometry relative="1" as="geometry">
            <mxPoint x="880" y="760" as="targetPoint" />
            <mxPoint x="984.5" y="665" as="sourcePoint" />
            <Array as="points">
              <mxPoint x="985" y="760" />
            </Array>
          </mxGeometry>
        </mxCell>
        <mxCell id="wz0nyAujkwzO3MRst4Ln-35" value="Select 1 random item from card list (num) - Dealer PC&lt;div&gt;Save items in a empty list - PC game&lt;br&gt;&lt;/div&gt;" style="rounded=1;whiteSpace=wrap;html=1;fontSize=12;glass=0;strokeWidth=1;shadow=0;" vertex="1" parent="WIyWlLk6GJQsqaUBKTNV-1">
          <mxGeometry x="827" y="665" width="315" height="40" as="geometry" />
        </mxCell>
        <mxCell id="wz0nyAujkwzO3MRst4Ln-36" value="Yes" style="edgeStyle=orthogonalEdgeStyle;rounded=0;html=1;jettySize=auto;orthogonalLoop=1;fontSize=11;endArrow=block;endFill=0;endSize=8;strokeWidth=1;shadow=0;labelBackgroundColor=none;exitX=1;exitY=0.5;exitDx=0;exitDy=0;entryX=0;entryY=0.5;entryDx=0;entryDy=0;" edge="1" parent="WIyWlLk6GJQsqaUBKTNV-1" source="wz0nyAujkwzO3MRst4Ln-34" target="wz0nyAujkwzO3MRst4Ln-35">
          <mxGeometry x="0.0924" y="15" relative="1" as="geometry">
            <mxPoint x="1" as="offset" />
            <mxPoint x="920" y="585" as="sourcePoint" />
            <mxPoint x="800" y="585" as="targetPoint" />
          </mxGeometry>
        </mxCell>
        <mxCell id="wz0nyAujkwzO3MRst4Ln-38" value="Yes" style="edgeStyle=orthogonalEdgeStyle;rounded=0;html=1;jettySize=auto;orthogonalLoop=1;fontSize=11;endArrow=block;endFill=0;endSize=8;strokeWidth=1;shadow=0;labelBackgroundColor=none;entryX=0.5;entryY=1;entryDx=0;entryDy=0;exitX=0;exitY=0.5;exitDx=0;exitDy=0;" edge="1" parent="WIyWlLk6GJQsqaUBKTNV-1" source="wz0nyAujkwzO3MRst4Ln-33" target="WIyWlLk6GJQsqaUBKTNV-12">
          <mxGeometry x="-0.9598" y="-15" relative="1" as="geometry">
            <mxPoint as="offset" />
            <mxPoint x="473" y="1084.5" as="sourcePoint" />
            <mxPoint x="365" y="1084.5" as="targetPoint" />
            <Array as="points">
              <mxPoint x="100" y="1195" />
            </Array>
          </mxGeometry>
        </mxCell>
        <mxCell id="wz0nyAujkwzO3MRst4Ln-39" value="No" style="rounded=0;html=1;jettySize=auto;orthogonalLoop=1;fontSize=11;endArrow=block;endFill=0;endSize=8;strokeWidth=1;shadow=0;labelBackgroundColor=none;edgeStyle=orthogonalEdgeStyle;exitX=1;exitY=0.5;exitDx=0;exitDy=0;entryX=0.5;entryY=1;entryDx=0;entryDy=0;" edge="1" parent="WIyWlLk6GJQsqaUBKTNV-1" source="wz0nyAujkwzO3MRst4Ln-33" target="wz0nyAujkwzO3MRst4Ln-23">
          <mxGeometry x="-0.9589" y="15" relative="1" as="geometry">
            <mxPoint as="offset" />
            <mxPoint x="810" y="1084.5" as="sourcePoint" />
            <mxPoint x="920" y="840" as="targetPoint" />
            <Array as="points">
              <mxPoint x="840" y="1195" />
              <mxPoint x="840" y="940" />
              <mxPoint x="330" y="940" />
            </Array>
          </mxGeometry>
        </mxCell>
        <mxCell id="wz0nyAujkwzO3MRst4Ln-42" style="edgeStyle=orthogonalEdgeStyle;rounded=0;orthogonalLoop=1;jettySize=auto;html=1;entryX=0.5;entryY=0;entryDx=0;entryDy=0;" edge="1" parent="WIyWlLk6GJQsqaUBKTNV-1" source="wz0nyAujkwzO3MRst4Ln-40" target="wz0nyAujkwzO3MRst4Ln-33">
          <mxGeometry relative="1" as="geometry" />
        </mxCell>
        <mxCell id="wz0nyAujkwzO3MRst4Ln-40" value="The PC Score and User score are equal?" style="rhombus;whiteSpace=wrap;html=1;" vertex="1" parent="WIyWlLk6GJQsqaUBKTNV-1">
          <mxGeometry x="488.75" y="1060" width="282.5" height="60" as="geometry" />
        </mxCell>
        <mxCell id="wz0nyAujkwzO3MRst4Ln-44" value="No" style="text;html=1;align=center;verticalAlign=middle;whiteSpace=wrap;rounded=0;" vertex="1" parent="WIyWlLk6GJQsqaUBKTNV-1">
          <mxGeometry x="630" y="1130" width="60" height="30" as="geometry" />
        </mxCell>
        <mxCell id="wz0nyAujkwzO3MRst4Ln-45" value="Print Draw" style="rounded=1;whiteSpace=wrap;html=1;fontSize=12;glass=0;strokeWidth=1;shadow=0;" vertex="1" parent="WIyWlLk6GJQsqaUBKTNV-1">
          <mxGeometry x="220" y="1070" width="180" height="40" as="geometry" />
        </mxCell>
        <mxCell id="wz0nyAujkwzO3MRst4Ln-46" value="Yes" style="edgeStyle=orthogonalEdgeStyle;rounded=0;html=1;jettySize=auto;orthogonalLoop=1;fontSize=11;endArrow=block;endFill=0;endSize=8;strokeWidth=1;shadow=0;labelBackgroundColor=none;exitX=0;exitY=0.5;exitDx=0;exitDy=0;" edge="1" parent="WIyWlLk6GJQsqaUBKTNV-1" source="wz0nyAujkwzO3MRst4Ln-40" target="wz0nyAujkwzO3MRst4Ln-45">
          <mxGeometry y="-10" relative="1" as="geometry">
            <mxPoint as="offset" />
            <mxPoint x="478" y="1089.5" as="sourcePoint" />
            <mxPoint x="370" y="1089.5" as="targetPoint" />
            <Array as="points" />
          </mxGeometry>
        </mxCell>
        <mxCell id="wz0nyAujkwzO3MRst4Ln-48" value="" style="endArrow=none;html=1;rounded=0;entryX=0;entryY=0.5;entryDx=0;entryDy=0;" edge="1" parent="WIyWlLk6GJQsqaUBKTNV-1" target="wz0nyAujkwzO3MRst4Ln-45">
          <mxGeometry width="50" height="50" relative="1" as="geometry">
            <mxPoint x="20" y="890" as="sourcePoint" />
            <mxPoint x="182.5" y="1080" as="targetPoint" />
            <Array as="points">
              <mxPoint x="20" y="1090" />
            </Array>
          </mxGeometry>
        </mxCell>
        <mxCell id="wz0nyAujkwzO3MRst4Ln-50" value="No" style="text;html=1;align=center;verticalAlign=middle;whiteSpace=wrap;rounded=0;" vertex="1" parent="WIyWlLk6GJQsqaUBKTNV-1">
          <mxGeometry x="320" y="730" width="60" height="30" as="geometry" />
        </mxCell>
        <mxCell id="wz0nyAujkwzO3MRst4Ln-61" style="edgeStyle=orthogonalEdgeStyle;rounded=0;orthogonalLoop=1;jettySize=auto;html=1;entryX=1;entryY=0.5;entryDx=0;entryDy=0;" edge="1" parent="WIyWlLk6GJQsqaUBKTNV-1" source="wz0nyAujkwzO3MRst4Ln-51" target="wz0nyAujkwzO3MRst4Ln-52">
          <mxGeometry relative="1" as="geometry" />
        </mxCell>
        <mxCell id="wz0nyAujkwzO3MRst4Ln-51" value="The PC Score is lower than 21?" style="rhombus;whiteSpace=wrap;html=1;" vertex="1" parent="WIyWlLk6GJQsqaUBKTNV-1">
          <mxGeometry x="1060" y="455" width="282.5" height="70" as="geometry" />
        </mxCell>
        <mxCell id="wz0nyAujkwzO3MRst4Ln-63" style="edgeStyle=orthogonalEdgeStyle;rounded=0;orthogonalLoop=1;jettySize=auto;html=1;entryX=1;entryY=0.5;entryDx=0;entryDy=0;" edge="1" parent="WIyWlLk6GJQsqaUBKTNV-1" source="wz0nyAujkwzO3MRst4Ln-52" target="WIyWlLk6GJQsqaUBKTNV-10">
          <mxGeometry relative="1" as="geometry" />
        </mxCell>
        <mxCell id="wz0nyAujkwzO3MRst4Ln-52" value="Select 1 random item from card list (num) - PC&lt;div&gt;Save items in a empty list - PC game&lt;br&gt;&lt;/div&gt;" style="rounded=1;whiteSpace=wrap;html=1;fontSize=12;glass=0;strokeWidth=1;shadow=0;" vertex="1" parent="WIyWlLk6GJQsqaUBKTNV-1">
          <mxGeometry x="710" y="470" width="290" height="40" as="geometry" />
        </mxCell>
        <mxCell id="wz0nyAujkwzO3MRst4Ln-59" value="Yes" style="text;html=1;align=center;verticalAlign=middle;whiteSpace=wrap;rounded=0;" vertex="1" parent="WIyWlLk6GJQsqaUBKTNV-1">
          <mxGeometry x="620" y="1030" width="60" height="30" as="geometry" />
        </mxCell>
        <mxCell id="wz0nyAujkwzO3MRst4Ln-60" value="Yes" style="text;html=1;align=center;verticalAlign=middle;whiteSpace=wrap;rounded=0;" vertex="1" parent="WIyWlLk6GJQsqaUBKTNV-1">
          <mxGeometry x="620" y="940" width="60" height="30" as="geometry" />
        </mxCell>
        <mxCell id="wz0nyAujkwzO3MRst4Ln-64" value="" style="endArrow=none;html=1;rounded=0;entryX=0.5;entryY=0;entryDx=0;entryDy=0;" edge="1" parent="WIyWlLk6GJQsqaUBKTNV-1" target="wz0nyAujkwzO3MRst4Ln-51">
          <mxGeometry width="50" height="50" relative="1" as="geometry">
            <mxPoint x="640" y="490" as="sourcePoint" />
            <mxPoint x="1009.5" y="360" as="targetPoint" />
            <Array as="points">
              <mxPoint x="640" y="360" />
              <mxPoint x="1201" y="360" />
            </Array>
          </mxGeometry>
        </mxCell>
        <mxCell id="wz0nyAujkwzO3MRst4Ln-65" value="No" style="text;html=1;align=center;verticalAlign=middle;whiteSpace=wrap;rounded=0;" vertex="1" parent="WIyWlLk6GJQsqaUBKTNV-1">
          <mxGeometry x="620" y="710" width="60" height="30" as="geometry" />
        </mxCell>
        <mxCell id="wz0nyAujkwzO3MRst4Ln-72" value="Yes" style="text;html=1;align=center;verticalAlign=middle;whiteSpace=wrap;rounded=0;" vertex="1" parent="WIyWlLk6GJQsqaUBKTNV-1">
          <mxGeometry x="1040" y="450" width="60" height="30" as="geometry" />
        </mxCell>
        <mxCell id="wz0nyAujkwzO3MRst4Ln-75" value="No" style="text;html=1;align=center;verticalAlign=middle;whiteSpace=wrap;rounded=0;" vertex="1" parent="WIyWlLk6GJQsqaUBKTNV-1">
          <mxGeometry x="1190" y="420" width="60" height="30" as="geometry" />
        </mxCell>
      </root>
    </mxGraphModel>
  </diagram>
</mxfile>
